<svg width="24" height="24" viewBox="0 0 24 24" fill="none" xmlns="http://www.w3.org/2000/svg">
<path d="M4.67262 20.3658L10.202 14.7417L11.9989 17.0584L6.93431 22.3197C5.6079 24.0233 3.15349 22.228 4.67262 20.3658ZM10.8615 8.59183C11.2356 7.35803 11.0636 6.30376 9.65787 4.73765L6.22283 0.560692C5.73534 -0.0180083 4.58655 0.831898 5.06647 1.53283L7.81375 4.95346C8.33335 5.59137 7.36784 6.43555 6.83123 5.77854L3.98948 2.2414C3.46043 1.62833 2.36643 2.43812 2.92005 3.13906C3.72118 4.11311 4.96066 5.70406 5.7618 6.6781C6.3173 7.24917 5.47271 8.09525 4.92476 7.38286L2.1038 3.86864C1.69001 3.41408 1.01358 3.69675 0.834079 4.2277C0.641354 4.79494 1.11561 5.20939 1.43871 5.62957L4.58655 9.73968C5.5634 10.8837 6.65551 11.5617 7.92523 11.1778C8.11985 11.1186 8.35792 10.9983 8.613 10.8398L17.8708 22.6845C18.3262 23.2784 19.2048 23.3415 19.7754 22.8621L19.9058 22.7532C20.5482 22.2127 20.6521 21.2253 20.1023 20.5874L10.3456 9.3768C10.6064 9.08267 10.7972 8.80382 10.8615 8.59183ZM13.2554 10.9983L14.6479 9.29085C12.8567 4.80258 19.4944 -1.17923 22.7122 1.57103C26.6215 4.91527 20.8114 12.975 16.7282 10.983L15.0787 13.1011L13.2554 10.9983Z" fill="#1E1D1B"/>
</svg>
