<svg width="19" height="18" viewBox="0 0 19 18" fill="none" xmlns="http://www.w3.org/2000/svg">
<path fill-rule="evenodd" clip-rule="evenodd" d="M12.6663 0.106089C14.0449 -0.315144 15.4823 0.560617 15.7402 1.97886L16.0075 3.44917C16.9698 3.76496 17.6646 4.67052 17.6646 5.73837V7.95761C18.1574 8.39867 18.4676 9.03965 18.4676 9.75306V11.3589C18.4676 12.0723 18.1574 12.7133 17.6646 13.1544V15.3736C17.6646 16.704 16.5862 17.7824 15.2558 17.7824H2.40881C1.07847 17.7824 0 16.704 0 15.3736V5.73837C0 4.54448 0.868569 3.55345 2.00829 3.36271L12.6663 0.106089ZM16.0587 12.1619C16.5022 12.1619 16.8617 11.8024 16.8617 11.3589V9.75306C16.8617 9.3096 16.5022 8.95012 16.0587 8.95012H13.6499C13.2065 8.95012 12.847 9.3096 12.847 9.75306V11.3589C12.847 11.8024 13.2065 12.1619 13.6499 12.1619H16.0587ZM16.0587 13.7677V15.3736C16.0587 15.8171 15.6993 16.1766 15.2558 16.1766H2.40881C1.96537 16.1766 1.60587 15.8171 1.60587 15.3736V5.73837C1.60587 5.29493 1.96537 4.93544 2.40881 4.93544H15.2558C15.6974 4.93544 16.0557 5.29191 16.0587 5.73278V7.34425H13.6499C12.3195 7.34425 11.2411 8.42267 11.2411 9.75306V11.3589C11.2411 12.6893 12.3195 13.7677 13.6499 13.7677H16.0587ZM14.2083 2.21111L14.4057 3.32956H7.22643L13.1868 1.58158C13.6471 1.44349 14.1248 1.73789 14.2083 2.21111Z" fill="#4CC538"/>
</svg>
