<svg width="22" height="18" viewBox="0 0 22 18" fill="none" xmlns="http://www.w3.org/2000/svg">
<path d="M7.2295 12.1402C7.74484 11.5875 8.36795 11.1463 9.06039 10.8437C9.7528 10.5413 10.5004 10.3841 11.2561 10.3814C12.0117 10.3788 12.7598 10.531 13.4543 10.8287C14.1489 11.1264 14.7752 11.5631 15.2944 12.1122M4.80308 8.7705C5.62763 7.88627 6.6246 7.18048 7.7325 6.6964C8.84039 6.21237 10.0356 5.96059 11.2445 5.95637C12.4535 5.95215 13.65 6.19581 14.7613 6.67208C15.8725 7.14839 16.8749 7.84733 17.7057 8.72581M1.56641 5.75313C2.80323 4.4268 4.29869 3.36795 5.96053 2.64192C7.62238 1.91588 9.41451 1.53767 11.228 1.53133C13.0416 1.525 14.8384 1.89048 16.5053 2.6049C18.1722 3.31932 19.6753 4.36834 20.9214 5.68601M11.2753 17.019C10.6644 17.019 10.1691 16.5237 10.1691 15.9127C10.1691 15.3017 10.6644 14.8065 11.2753 14.8065C11.8863 14.8065 12.3816 15.3017 12.3816 15.9127C12.3816 16.5237 11.8863 17.019 11.2753 17.019Z" stroke="#1E1D1B" stroke-width="1.90358" stroke-linecap="round" stroke-linejoin="round"/>
</svg>
