<svg width="22" height="21" viewBox="0 0 22 21" fill="none" xmlns="http://www.w3.org/2000/svg">
<path d="M3.84826 18.3312L8.98588 13.2173L10.6554 15.3238L5.94969 20.1078C4.71727 21.6568 2.43677 20.0244 3.84826 18.3312ZM9.59858 7.62535C9.94618 6.50349 9.78642 5.54487 8.48027 4.12084L5.28863 0.322832C4.83569 -0.203366 3.76829 0.569433 4.21421 1.20678L6.76683 4.31708C7.24961 4.89711 6.35251 5.6647 5.85392 5.0673L3.21353 1.85106C2.72197 1.29361 1.70548 2.02994 2.21987 2.66728C2.96424 3.55296 4.1159 4.99957 4.86026 5.88525C5.3764 6.4045 4.59166 7.17383 4.08254 6.52607L1.46146 3.33067C1.07699 2.91735 0.448487 3.17438 0.281707 3.65716C0.102638 4.17294 0.543288 4.54978 0.843493 4.93184L3.76829 8.66907C4.67593 9.70931 5.69065 10.3258 6.8704 9.97675C7.05123 9.92291 7.27243 9.8135 7.50944 9.66936L16.1113 20.4394C16.5344 20.9795 17.3507 21.0368 17.8809 20.601L18.0021 20.502C18.599 20.0105 18.6955 19.1127 18.1846 18.5326L9.1193 8.33911C9.36157 8.07167 9.53889 7.81812 9.59858 7.62535ZM11.8229 9.8135L13.1168 8.26096C11.4525 4.17988 17.6198 -1.25924 20.6096 1.24151C24.2419 4.28234 18.8435 11.6109 15.0497 9.79961L13.517 11.7255L11.8229 9.8135Z" fill="#1E1D1B"/>
</svg>
