<svg width="26" height="20" viewBox="0 0 26 20" fill="none" xmlns="http://www.w3.org/2000/svg">
<path d="M1.83768 19.7678H3.06693C3.83784 19.7678 4.44202 19.174 4.44202 18.4031V16.653C6.75473 16.7988 10.0987 16.903 12.776 16.903C15.4637 16.903 18.8078 16.7988 21.1204 16.653V18.4031C21.1204 19.174 21.7142 19.7678 22.4954 19.7678H23.7248C24.506 19.7678 25.1103 19.174 25.1103 18.4031V12.3922C25.1103 10.6421 24.7561 9.65243 23.7873 8.40233L22.9123 7.26682C22.5268 5.39166 21.8392 3.42275 21.4745 2.65189C20.9224 1.47468 19.839 0.776719 18.4536 0.589193C17.7556 0.505897 15.4742 0.443359 12.776 0.443359C10.0883 0.443359 7.8069 0.516298 7.10889 0.589193C5.7234 0.755872 4.63999 1.47468 4.08785 2.65189C3.72325 3.42275 3.03568 5.39166 2.65023 7.26682L1.77514 8.40233C0.806354 9.65243 0.452148 10.6421 0.452148 12.3922V18.4031C0.452148 19.174 1.05637 19.7678 1.83768 19.7678ZM4.75457 6.40218C5.00459 5.25622 5.50463 3.76655 5.84839 3.16233C6.12966 2.67269 6.43177 2.46436 6.9943 2.39142C7.78605 2.27684 9.55704 2.21434 12.776 2.21434C16.0055 2.21434 17.7764 2.25599 18.5681 2.39142C19.1203 2.47476 19.4223 2.67269 19.714 3.16233C20.0683 3.75611 20.5371 5.25622 20.8078 6.40218C20.9017 6.78759 20.7453 6.93347 20.3391 6.90217C18.6098 6.79803 16.5471 6.68345 12.776 6.68345C9.01531 6.68345 6.95266 6.79803 5.22337 6.90217C4.81707 6.93347 4.67123 6.78759 4.75457 6.40218ZM5.18167 14.2049C4.19204 14.2049 3.45238 13.4548 3.45238 12.4755C3.45238 11.4859 4.19204 10.7463 5.18167 10.7463C6.17135 10.7463 6.91096 11.4859 6.91096 12.4755C6.91096 13.4548 6.17135 14.2049 5.18167 14.2049ZM20.3807 14.2049C19.3912 14.2049 18.6515 13.4548 18.6515 12.4755C18.6515 11.4859 19.3912 10.7463 20.3807 10.7463C21.36 10.7463 22.1101 11.4859 22.1101 12.4755C22.1101 13.4548 21.36 14.2049 20.3807 14.2049ZM10.0154 13.7256C9.28617 13.7256 8.77569 13.2048 8.77569 12.4755C8.77569 11.7359 9.28617 11.2254 10.0154 11.2254H15.5471C16.2763 11.2254 16.7868 11.7359 16.7868 12.4755C16.7868 13.2048 16.2763 13.7256 15.5471 13.7256H10.0154Z" fill="#1E1D1B"/>
</svg>
