<svg width="23" height="23" viewBox="0 0 23 23" fill="none" xmlns="http://www.w3.org/2000/svg">
<g clip-path="url(#clip0_868_8866)">
<path d="M10.6547 6.32685C9.91844 6.07595 9.10816 5.93555 8.25961 5.93555C5.66376 5.93555 3.43841 7.23374 2.49902 9.08205H10.6523V6.32685H10.6547Z" fill="#1E1D1B"/>
<path d="M4.75805 16.7433H17.9859C19.9985 15.0331 21.2653 12.5564 21.2653 9.79888C21.2653 4.90305 17.276 0.886485 12.199 0.490583C12.1775 0.488281 12.156 0.488281 12.1368 0.488281C11.7185 0.488281 11.3719 0.815131 11.3719 1.22484V6.61786V9.77586C11.3719 9.77586 4.52378 9.77586 2.22193 9.77586H2.21954C1.80124 9.77817 1.47377 10.1188 1.50724 10.5193C1.70563 12.9868 2.9199 15.185 4.75805 16.7433Z" fill="#1E1D1B"/>
<path d="M6.22827 22.06C7.49558 22.06 8.52294 21.0707 8.52294 19.8503C8.52294 18.6299 7.49558 17.6406 6.22827 17.6406C4.96095 17.6406 3.93359 18.6299 3.93359 19.8503C3.93359 21.0707 4.96095 22.06 6.22827 22.06Z" fill="#1E1D1B"/>
<path d="M16.1785 22.06C17.4458 22.06 18.4731 21.0707 18.4731 19.8503C18.4731 18.6299 17.4458 17.6406 16.1785 17.6406C14.9111 17.6406 13.8838 18.6299 13.8838 19.8503C13.8838 21.0707 14.9111 22.06 16.1785 22.06Z" fill="#1E1D1B"/>
</g>
<defs>
<clipPath id="clip0_868_8866">
<rect width="22.4017" height="21.5721" fill="white" transform="translate(0.183594 0.488281)"/>
</clipPath>
</defs>
</svg>
