<svg width="71" height="71" viewBox="0 0 71 71" fill="none" xmlns="http://www.w3.org/2000/svg">
<mask id="mask0_796_714" style="mask-type:alpha" maskUnits="userSpaceOnUse" x="0" y="0" width="71" height="71">
<circle cx="35.5" cy="35.5" r="35.5" fill="#D9D9D9"/>
</mask>
<g mask="url(#mask0_796_714)">
<circle cx="35.5225" cy="35.4062" r="35.5" fill="#D9D9D9"/>
<path d="M72.7651 44.5938C72.7651 44.5938 73.7053 78.74 37.6787 74.0529C26.8098 72.6389 15.9238 68.7938 10.133 63.6119C4.67827 58.7308 3.31641 52.4496 3.31641 52.4496L3.9665 50.3941L3.31641 46.5632L3.9665 44.1717L39.7219 39.8532L43.9475 37.0903L55.2314 35.4883C58.3271 35.9759 64.6253 36.9789 65.0525 37.0903C65.4797 37.2018 68.3107 39.7836 69.6729 41.0605L72.7651 44.5938Z" fill="#003B95"/>
<path d="M70.7735 42.9467C71.0745 43.2145 71.2125 43.3849 71.2125 43.3849L70.7735 43.2994V42.9467C69.9825 42.2432 68.0658 40.8674 64.5678 40.1443C59.7385 39.1459 53.9573 40.1443 51.473 42.3267C48.9887 44.5092 46.249 49.4546 40.0963 53.2159C33.9436 56.9772 25.731 49.3002 23.5717 48.3251C21.4125 47.3499 17.9424 46.8489 16.1587 46.622C14.0368 46.3522 10.7258 47.3186 10.7258 47.3186C7.75391 48.1544 3.96941 51.8228 3.96941 51.8228C3.96941 51.8228 1.43077 49.5904 0.537425 47.1326C0.250907 46.3443 -0.0197815 45.5328 -0.195435 44.7644C-0.262873 44.4694 -0.292011 44.1807 -0.337456 43.9021C-0.338542 43.8954 -0.339637 43.8888 -0.340743 43.8821C-0.359041 43.7721 -0.426531 43.6637 -0.453722 43.5571C-0.45471 43.5532 -0.455245 43.5493 -0.455419 43.5454L-0.467284 43.4642L-0.539602 43.0907C-1.44106 39.6269 0.0223825 34.1773 0.0223825 34.1773C4.54985 31.6774 13.7952 26.6777 14.5567 26.6777H21.6614H41.3268L61.4799 27.5368H66.2395L70.9992 37.0795L70.7735 41.9587V42.9467Z" fill="#2D6ECB"/>
<path d="M-0.584961 34.1786C0.0290791 28.1024 1.00703 24.8132 3.31563 19.296L17.8539 8.128L30.1129 5.96875L52.2626 12.284L67.8794 19.2154C68.0474 19.7687 69.0923 21.5894 69.2435 22.1053C69.6007 23.0106 69.7961 23.6872 70.0577 24.4269C71.5284 28.5844 71.2446 31.9122 70.9734 37.0273C70.9734 37.0273 67.5757 33.994 65.1253 32.5301C60.5614 29.8037 58.4818 28.2218 53.0419 27.4376C47.0032 26.567 44.5857 28.1085 38.9223 30.3777C33.2775 32.6395 29.7436 37.4304 23.9834 39.3794C18.3392 41.2891 14.4397 42.0624 8.75251 40.2849C4.52972 38.965 -0.584961 34.1786 -0.584961 34.1786Z" fill="#86B3F3"/>
<path d="M18.7813 15.0688C24.7947 15.6663 39.0737 26.1436 51.1701 26.1436C57.2708 26.1436 60.8279 24.2714 63.1505 22.3359C63.5684 21.9876 64.0253 21.6816 64.4739 21.3375C65.0789 20.8735 66.6194 19.2803 67.126 19.2136C68.287 17.7668 67.7393 18.0251 67.5704 17.2649C67.2356 15.7582 62.8602 10.4586 55.8731 5.17607C51.2317 1.66698 45.4649 0.493063 39.0272 0.139711C36.3539 -0.00702263 33.838 0.0421499 31.4582 0.2752C21.8395 1.21714 14.2926 4.52083 7.98417 12.2735C6.32722 14.3097 5.51961 16.6529 3.87549 19.3408C10.7331 15.1745 12.7679 14.4712 18.7813 15.0688Z" fill="#E8E8E7"/>
</g>
</svg>
